<mxfile host="app.diagrams.net" modified="2021-07-24T07:36:36.806Z" agent="5.0 (Macintosh; Intel Mac OS X 10_14_4) AppleWebKit/537.36 (KHTML, like Gecko) Chrome/91.0.4472.114 Safari/537.36" etag="DgU3n74tk-PLxSp1boaO" version="14.8.5" type="github">
  <diagram id="HZqVJQx8UYSr__OS122P" name="Page-1">
    <mxGraphModel dx="2105" dy="618" grid="1" gridSize="10" guides="1" tooltips="1" connect="1" arrows="1" fold="1" page="1" pageScale="1" pageWidth="850" pageHeight="1100" math="0" shadow="0">
      <root>
        <mxCell id="0" />
        <mxCell id="1" parent="0" />
        <mxCell id="u1fbbWrBZeRMGrVkOF4U-1" value="&lt;font style=&quot;font-size: 25px&quot;&gt;System Design&lt;/font&gt;" style="text;html=1;strokeColor=none;fillColor=none;align=center;verticalAlign=middle;whiteSpace=wrap;rounded=0;" vertex="1" parent="1">
          <mxGeometry x="330" y="40" width="190" height="70" as="geometry" />
        </mxCell>
        <mxCell id="u1fbbWrBZeRMGrVkOF4U-2" value="" style="shape=process;whiteSpace=wrap;html=1;backgroundOutline=1;" vertex="1" parent="1">
          <mxGeometry x="200" y="280" width="440" height="90" as="geometry" />
        </mxCell>
        <mxCell id="u1fbbWrBZeRMGrVkOF4U-3" value="KRYPTO ARMY" style="text;html=1;strokeColor=none;fillColor=none;align=center;verticalAlign=middle;whiteSpace=wrap;rounded=0;" vertex="1" parent="1">
          <mxGeometry x="385" y="300" width="100" height="50" as="geometry" />
        </mxCell>
        <mxCell id="u1fbbWrBZeRMGrVkOF4U-4" value="" style="rounded=0;whiteSpace=wrap;html=1;" vertex="1" parent="1">
          <mxGeometry x="-130" y="520" width="120" height="60" as="geometry" />
        </mxCell>
        <mxCell id="u1fbbWrBZeRMGrVkOF4U-5" value="Dashboard" style="text;html=1;strokeColor=none;fillColor=none;align=center;verticalAlign=middle;whiteSpace=wrap;rounded=0;" vertex="1" parent="1">
          <mxGeometry x="-110" y="530" width="80" height="40" as="geometry" />
        </mxCell>
        <mxCell id="u1fbbWrBZeRMGrVkOF4U-6" value="" style="endArrow=classic;html=1;" edge="1" parent="1">
          <mxGeometry width="50" height="50" relative="1" as="geometry">
            <mxPoint x="-70" y="580" as="sourcePoint" />
            <mxPoint x="-70" y="680" as="targetPoint" />
          </mxGeometry>
        </mxCell>
        <mxCell id="u1fbbWrBZeRMGrVkOF4U-7" value="" style="shape=image;verticalLabelPosition=bottom;labelBackgroundColor=#ffffff;verticalAlign=top;aspect=fixed;imageAspect=0;image=https://moralis.io/wp-content/uploads/2021/06/cropped-Moralis-Favicon-Glass.png;" vertex="1" parent="1">
          <mxGeometry x="-101" y="680" width="62" height="62" as="geometry" />
        </mxCell>
        <mxCell id="u1fbbWrBZeRMGrVkOF4U-8" value="Moralis API" style="text;html=1;strokeColor=none;fillColor=none;align=center;verticalAlign=middle;whiteSpace=wrap;rounded=0;" vertex="1" parent="1">
          <mxGeometry x="-105" y="750" width="70" height="20" as="geometry" />
        </mxCell>
        <mxCell id="u1fbbWrBZeRMGrVkOF4U-9" value="" style="endArrow=none;html=1;exitX=0.5;exitY=0;exitDx=0;exitDy=0;entryX=0;entryY=0.444;entryDx=0;entryDy=0;entryPerimeter=0;" edge="1" parent="1" source="u1fbbWrBZeRMGrVkOF4U-4" target="u1fbbWrBZeRMGrVkOF4U-2">
          <mxGeometry width="50" height="50" relative="1" as="geometry">
            <mxPoint x="400" y="570" as="sourcePoint" />
            <mxPoint x="450" y="520" as="targetPoint" />
            <Array as="points">
              <mxPoint x="-70" y="320" />
              <mxPoint x="160" y="320" />
            </Array>
          </mxGeometry>
        </mxCell>
        <mxCell id="u1fbbWrBZeRMGrVkOF4U-10" value="" style="rounded=0;whiteSpace=wrap;html=1;" vertex="1" parent="1">
          <mxGeometry x="100" y="520" width="120" height="60" as="geometry" />
        </mxCell>
        <mxCell id="u1fbbWrBZeRMGrVkOF4U-11" value="" style="rounded=0;whiteSpace=wrap;html=1;" vertex="1" parent="1">
          <mxGeometry x="460" y="520" width="120" height="60" as="geometry" />
        </mxCell>
        <mxCell id="u1fbbWrBZeRMGrVkOF4U-12" value="" style="rounded=0;whiteSpace=wrap;html=1;" vertex="1" parent="1">
          <mxGeometry x="835" y="520" width="120" height="60" as="geometry" />
        </mxCell>
        <mxCell id="u1fbbWrBZeRMGrVkOF4U-13" value="Fiat to Crypto" style="text;html=1;strokeColor=none;fillColor=none;align=center;verticalAlign=middle;whiteSpace=wrap;rounded=0;" vertex="1" parent="1">
          <mxGeometry x="120" y="530" width="80" height="40" as="geometry" />
        </mxCell>
        <mxCell id="u1fbbWrBZeRMGrVkOF4U-14" value="Wallet" style="text;html=1;strokeColor=none;fillColor=none;align=center;verticalAlign=middle;whiteSpace=wrap;rounded=0;" vertex="1" parent="1">
          <mxGeometry x="480" y="530" width="80" height="40" as="geometry" />
        </mxCell>
        <mxCell id="u1fbbWrBZeRMGrVkOF4U-15" value="DEX" style="text;html=1;strokeColor=none;fillColor=none;align=center;verticalAlign=middle;whiteSpace=wrap;rounded=0;" vertex="1" parent="1">
          <mxGeometry x="855" y="530" width="80" height="40" as="geometry" />
        </mxCell>
        <mxCell id="u1fbbWrBZeRMGrVkOF4U-17" value="" style="endArrow=classic;html=1;" edge="1" parent="1">
          <mxGeometry width="50" height="50" relative="1" as="geometry">
            <mxPoint x="159.58000000000004" y="580" as="sourcePoint" />
            <mxPoint x="159.58000000000004" y="680" as="targetPoint" />
          </mxGeometry>
        </mxCell>
        <mxCell id="u1fbbWrBZeRMGrVkOF4U-18" value="" style="endArrow=classic;html=1;" edge="1" parent="1">
          <mxGeometry width="50" height="50" relative="1" as="geometry">
            <mxPoint x="520" y="580" as="sourcePoint" />
            <mxPoint x="400" y="918" as="targetPoint" />
          </mxGeometry>
        </mxCell>
        <mxCell id="u1fbbWrBZeRMGrVkOF4U-19" value="" style="endArrow=classic;html=1;" edge="1" parent="1">
          <mxGeometry width="50" height="50" relative="1" as="geometry">
            <mxPoint x="894.58" y="580" as="sourcePoint" />
            <mxPoint x="894.58" y="680" as="targetPoint" />
          </mxGeometry>
        </mxCell>
        <mxCell id="u1fbbWrBZeRMGrVkOF4U-20" value="" style="endArrow=none;html=1;exitX=0.5;exitY=0;exitDx=0;exitDy=0;" edge="1" parent="1" source="u1fbbWrBZeRMGrVkOF4U-10">
          <mxGeometry width="50" height="50" relative="1" as="geometry">
            <mxPoint x="340" y="510" as="sourcePoint" />
            <mxPoint x="320" y="373" as="targetPoint" />
            <Array as="points">
              <mxPoint x="160" y="440" />
              <mxPoint x="320" y="440" />
            </Array>
          </mxGeometry>
        </mxCell>
        <mxCell id="u1fbbWrBZeRMGrVkOF4U-21" value="" style="shape=image;verticalLabelPosition=bottom;labelBackgroundColor=#ffffff;verticalAlign=top;aspect=fixed;imageAspect=0;image=https://cdn-images-1.medium.com/max/500/1*c-LQZvaUJ_ZNh4nk7snAkQ@2x.png;" vertex="1" parent="1">
          <mxGeometry x="90" y="680" width="140" height="56" as="geometry" />
        </mxCell>
        <mxCell id="u1fbbWrBZeRMGrVkOF4U-22" value="" style="shape=image;verticalLabelPosition=bottom;labelBackgroundColor=#ffffff;verticalAlign=top;aspect=fixed;imageAspect=0;image=https://storage.googleapis.com/holdex-posts/ec2e7bcb-2301-4932-a6ce-4181b95b4a9d/7abad6b6-8984-44a5-bef3-b9a0914b1d0f-how-to-install-metamask.png;" vertex="1" parent="1">
          <mxGeometry x="323" y="919.1" width="162" height="79.1" as="geometry" />
        </mxCell>
        <mxCell id="u1fbbWrBZeRMGrVkOF4U-23" value="" style="shape=image;verticalLabelPosition=bottom;labelBackgroundColor=#ffffff;verticalAlign=top;aspect=fixed;imageAspect=0;image=https://moralis.io/wp-content/uploads/2021/06/cropped-Moralis-Favicon-Glass.png;" vertex="1" parent="1">
          <mxGeometry x="604" y="919.1" width="62" height="62" as="geometry" />
        </mxCell>
        <mxCell id="u1fbbWrBZeRMGrVkOF4U-24" value="Moralis API" style="text;html=1;strokeColor=none;fillColor=none;align=center;verticalAlign=middle;whiteSpace=wrap;rounded=0;" vertex="1" parent="1">
          <mxGeometry x="600" y="989.1" width="70" height="20" as="geometry" />
        </mxCell>
        <mxCell id="u1fbbWrBZeRMGrVkOF4U-25" value="" style="endArrow=classic;html=1;entryX=0.413;entryY=-0.057;entryDx=0;entryDy=0;entryPerimeter=0;exitX=0.5;exitY=1;exitDx=0;exitDy=0;" edge="1" parent="1" source="u1fbbWrBZeRMGrVkOF4U-11" target="u1fbbWrBZeRMGrVkOF4U-23">
          <mxGeometry width="50" height="50" relative="1" as="geometry">
            <mxPoint x="530" y="590" as="sourcePoint" />
            <mxPoint x="401.6880000000001" y="927.9925999999998" as="targetPoint" />
          </mxGeometry>
        </mxCell>
        <mxCell id="u1fbbWrBZeRMGrVkOF4U-26" value="" style="shape=image;verticalLabelPosition=bottom;labelBackgroundColor=#ffffff;verticalAlign=top;aspect=fixed;imageAspect=0;image=https://duneanalytics.com/projects/pages/1inch/1inch.svg;" vertex="1" parent="1">
          <mxGeometry x="820" y="680" width="150" height="75" as="geometry" />
        </mxCell>
        <mxCell id="u1fbbWrBZeRMGrVkOF4U-29" value="" style="endArrow=none;html=1;exitX=0.5;exitY=0;exitDx=0;exitDy=0;entryX=0.552;entryY=0.992;entryDx=0;entryDy=0;entryPerimeter=0;endFill=0;" edge="1" parent="1" source="u1fbbWrBZeRMGrVkOF4U-11" target="u1fbbWrBZeRMGrVkOF4U-2">
          <mxGeometry width="50" height="50" relative="1" as="geometry">
            <mxPoint x="520" y="510" as="sourcePoint" />
            <mxPoint x="444" y="372" as="targetPoint" />
            <Array as="points">
              <mxPoint x="520" y="440" />
              <mxPoint x="443" y="440" />
            </Array>
          </mxGeometry>
        </mxCell>
        <mxCell id="u1fbbWrBZeRMGrVkOF4U-33" value="" style="endArrow=none;html=1;entryX=0.5;entryY=0;entryDx=0;entryDy=0;exitX=1.006;exitY=0.446;exitDx=0;exitDy=0;exitPerimeter=0;" edge="1" parent="1" source="u1fbbWrBZeRMGrVkOF4U-2" target="u1fbbWrBZeRMGrVkOF4U-12">
          <mxGeometry width="50" height="50" relative="1" as="geometry">
            <mxPoint x="530" y="510" as="sourcePoint" />
            <mxPoint x="580" y="460" as="targetPoint" />
            <Array as="points">
              <mxPoint x="700" y="320" />
            </Array>
          </mxGeometry>
        </mxCell>
      </root>
    </mxGraphModel>
  </diagram>
</mxfile>
